<?xml version="1.0" encoding="UTF-8" standalone="no"?>
<!DOCTYPE svg PUBLIC "-//W3C//DTD SVG 1.1//EN" "http://www.w3.org/Graphics/SVG/1.1/DTD/svg11.dtd">
<svg width="100%" height="100%" viewBox="0 0 2635 388" version="1.1" xmlns="http://www.w3.org/2000/svg" xmlns:xlink="http://www.w3.org/1999/xlink" xml:space="preserve" xmlns:serif="http://www.serif.com/" style="fill-rule:evenodd;clip-rule:evenodd;stroke-linejoin:round;stroke-miterlimit:2;">
    <g transform="matrix(1,0,0,1,-7971.72,-295.276)">
        <g transform="matrix(1,0,0,2.38095,7615.89,2.27374e-13)">
            <g transform="matrix(1.46301,0,0,0.614462,-11105.4,-90.4107)">
                <path d="M8253.08,576.068L8253.08,577.916L8356.3,577.916L8356.3,576.068C8350.76,575.54 8338.35,574.221 8335.18,573.165C8329.11,570.789 8327,566.037 8327,560.229L8327,400.783L8335.45,400.783C8342.05,400.783 8348.12,401.047 8353.93,401.839C8365.28,403.423 8382.7,435.365 8387.19,446.981L8389.83,446.981L8389.83,397.616L8219.56,397.616L8219.56,446.981L8221.93,446.981C8226.42,435.365 8244.37,403.423 8255.46,401.839C8261.27,401.047 8267.87,400.783 8273.94,400.783L8282.12,400.783L8282.12,560.757C8282.12,566.565 8280.54,571.053 8274.2,573.429C8270.77,574.485 8259.16,575.54 8253.08,576.068Z" style="fill:rgb(29,63,105);fill-rule:nonzero;"/>
                <path d="M8395.64,576.068L8395.64,577.916L8467.7,577.916L8467.7,576.068C8463.74,575.54 8460.05,575.276 8456.62,573.693C8452.92,571.845 8451.86,568.149 8451.86,562.341L8451.86,479.451C8454.77,473.907 8462.42,466.515 8476.41,466.515C8486.18,466.515 8494.89,473.643 8494.89,491.858L8494.89,562.341C8494.89,568.149 8494.1,572.637 8489.88,574.221C8486.97,575.276 8483.28,575.804 8479.58,576.068L8479.58,577.916L8551.39,577.916L8551.39,576.068C8546.63,575.54 8543.2,575.276 8539.51,573.957C8534.49,571.845 8533.7,568.413 8533.7,562.605L8533.7,493.442C8533.7,468.363 8519.97,451.732 8493.57,451.732C8471.14,451.732 8462.16,463.612 8452.39,473.379L8451.86,473.379L8451.86,382.041L8450.81,380.985L8389.04,383.889L8389.04,385.736C8393.79,386 8403.29,387.056 8406.99,389.696C8411.21,392.864 8413.32,398.408 8413.59,404.215L8413.59,563.661C8413.59,569.469 8411.74,572.637 8406.99,574.221C8403.56,575.276 8399.86,575.804 8395.64,576.068Z" style="fill:rgb(29,63,105);fill-rule:nonzero;"/>
                <path d="M8627.68,581.612C8652.76,581.612 8671.76,566.301 8681.27,546.502L8678.63,544.654C8669.12,562.605 8656.45,569.733 8639.29,569.733C8612.37,569.733 8602.34,545.182 8602.34,513.24L8602.34,506.641L8678.63,506.641L8678.63,504.793C8678.63,477.867 8663.58,451.732 8624.51,451.732C8585.97,451.732 8560.36,480.506 8560.36,516.672C8560.36,555.214 8585.18,581.612 8627.68,581.612ZM8640.61,502.945L8602.34,503.473C8603.13,476.547 8609.73,454.9 8622.92,454.9C8639.56,454.9 8640.61,482.09 8640.61,502.945Z" style="fill:rgb(29,63,105);fill-rule:nonzero;"/>
                <path d="M8730.37,576.068L8730.37,577.916L8796.36,577.916L8796.36,576.068C8787.12,575.276 8765.48,574.221 8764.68,564.981C8764.42,561.549 8766,555.214 8768.12,548.614L8780.79,512.976L8839.66,512.976L8857.08,561.021C8857.61,562.341 8858.14,564.717 8858.14,566.829C8857.61,573.429 8839.39,575.276 8830.42,576.068L8830.42,577.916L8928.88,577.916L8928.88,576.068C8924.13,575.54 8918.85,575.013 8914.1,572.373C8908.03,568.941 8905.65,564.189 8903.54,558.91C8897.2,543.862 8856.02,435.893 8839.66,394.712L8823.02,394.712C8810.88,425.07 8771.81,523.8 8760.46,550.99C8756.76,559.965 8752.01,567.885 8745.41,572.109C8740.93,575.013 8735.12,575.54 8730.37,576.068ZM8782.64,508.489L8810.35,437.477L8837.81,508.489L8782.64,508.489Z" style="fill:rgb(29,63,105);fill-rule:nonzero;"/>
                <path d="M8927.3,576.068L8927.3,577.916L8999.63,577.916L8999.63,576.068C8995.67,575.54 8991.97,575.276 8988.54,573.693C8984.58,571.845 8983.53,568.149 8983.53,562.341L8983.53,479.451C8986.43,473.907 8994.35,466.515 9008.34,466.515C9018.11,466.515 9026.82,473.643 9026.82,491.858L9026.82,562.341C9026.82,568.149 9026.03,572.637 9021.8,574.221C9018.9,575.276 9015.2,575.804 9011.25,576.068L9011.25,577.916L9083.05,577.916L9083.05,576.068C9078.3,575.54 9075.13,575.276 9071.43,573.957C9066.42,571.845 9065.36,568.413 9065.36,562.605L9065.36,493.442C9065.36,468.363 9051.9,451.732 9025.5,451.732C9003.06,451.732 8994.09,463.612 8984.32,473.379L8983.53,473.379L8983.53,454.636L8982.47,453.58L8925.71,456.484L8925.71,458.068C8929.94,458.332 8935.75,459.652 8938.91,461.764C8942.87,464.403 8945.25,469.419 8945.25,476.019L8945.25,563.661C8945.25,569.469 8943.67,572.637 8938.65,574.221C8935.22,575.276 8931.79,575.804 8927.3,576.068Z" style="fill:rgb(29,63,105);fill-rule:nonzero;"/>
                <path d="M9155.38,581.612C9180.99,581.612 9199.47,565.773 9208.18,545.974L9205.27,544.126C9197.35,559.701 9185.21,569.205 9167,569.205C9147.2,569.205 9134.26,550.99 9134.26,513.768C9134.26,474.963 9145.08,454.636 9159.34,454.636C9166.47,454.636 9171.22,457.804 9172.27,462.292C9171.48,466.515 9164.62,474.171 9164.62,483.41C9164.62,495.553 9173.07,501.097 9183.63,501.097C9195.77,501.097 9202.63,492.65 9202.63,482.618C9202.63,465.459 9188.38,451.732 9159.08,451.732C9118.69,451.732 9092.02,480.506 9092.02,516.144C9092.02,557.326 9114.2,581.612 9155.38,581.612Z" style="fill:rgb(29,63,105);fill-rule:nonzero;"/>
                <path d="M9210.02,576.068L9210.02,577.916L9282.09,577.916L9282.09,576.068C9278.13,575.54 9274.44,575.276 9271.01,573.693C9267.31,571.845 9266.25,568.149 9266.25,562.341L9266.25,479.451C9269.16,473.907 9276.81,466.515 9290.8,466.515C9300.57,466.515 9309.28,473.643 9309.28,491.858L9309.28,562.341C9309.28,568.149 9308.49,572.637 9304.27,574.221C9301.36,575.276 9297.67,575.804 9293.97,576.068L9293.97,577.916L9365.77,577.916L9365.77,576.068C9361.02,575.54 9357.59,575.276 9353.9,573.957C9348.88,571.845 9348.09,568.413 9348.09,562.605L9348.09,493.442C9348.09,468.363 9334.36,451.732 9307.96,451.732C9285.52,451.732 9276.55,463.612 9266.78,473.379L9266.25,473.379L9266.25,382.041L9265.2,380.985L9203.43,383.889L9203.43,385.736C9208.18,386 9217.68,387.056 9221.38,389.696C9225.6,392.864 9227.71,398.408 9227.98,404.215L9227.98,563.661C9227.98,569.469 9226.13,572.637 9221.38,574.221C9217.94,575.276 9214.25,575.804 9210.02,576.068Z" style="fill:rgb(29,63,105);fill-rule:nonzero;"/>
                <path d="M9442.07,581.612C9485.09,581.612 9511.49,554.422 9511.49,515.616C9511.49,476.547 9483.51,451.732 9443.39,451.732C9404.05,451.732 9374.75,476.283 9374.75,516.672C9374.75,559.437 9407.48,581.612 9442.07,581.612ZM9443.39,578.972C9420.95,578.972 9416.99,547.294 9416.99,515.088C9416.99,487.106 9420.95,454.636 9443.65,454.636C9464.77,454.636 9469.26,485.258 9469.26,515.616C9469.26,548.086 9464.77,578.972 9443.39,578.972Z" style="fill:rgb(29,63,105);fill-rule:nonzero;"/>
                <path d="M9522.05,576.068L9522.05,577.916L9602.83,577.916L9602.83,576.068C9598.61,575.54 9588.58,575.276 9584.62,573.693C9580.66,571.845 9578.28,568.149 9578.28,562.341L9578.28,478.395C9580.92,474.171 9590.16,464.139 9601.78,463.875C9600.72,467.571 9598.08,474.171 9598.08,478.923C9598.08,489.482 9605.47,495.29 9616.03,495.29C9627.38,495.29 9634.77,485.786 9634.77,474.171C9634.77,461.236 9625.8,452.26 9613.39,452.26C9601.25,452.26 9589.63,459.388 9578.81,473.379L9578.28,473.379L9578.28,454.636L9577.23,453.58L9520.47,456.484L9520.47,458.068C9524.96,458.332 9530.5,459.652 9533.67,461.764C9537.63,464.403 9540,469.683 9540,475.755L9540,563.397C9540,569.205 9538.42,572.637 9533.4,574.221C9529.97,575.54 9526.54,575.804 9522.05,576.068Z" style="fill:rgb(29,63,105);fill-rule:nonzero;"/>
            </g>
        </g>
        <g transform="matrix(1,0,0,2.38095,7615.89,2.27374e-13)">
            <g transform="matrix(0.749915,0,0,0.314964,-1771.74,48.6038)">
                <circle cx="3095.25" cy="497.596" r="258.166" style="fill:rgb(29,63,105);"/>
            </g>
        </g>
        <g transform="matrix(1,0,0,2.38095,7615.89,2.27374e-13)">
            <g transform="matrix(0.263898,0,0,0.110837,-817.036,329.22)">
                <g transform="matrix(2.94941,0,0,2.94941,2381.67,-5902.92)">
                    <path d="M891.838,1450.59L996.076,1450.59L979.894,1436.01C979.42,1435.59 979.346,1434.88 979.718,1434.36C980.09,1433.85 980.792,1433.7 981.34,1434.02L1014.46,1453.15C1014.85,1453.37 1015.09,1453.78 1015.09,1454.22C1015.09,1454.66 1014.85,1455.07 1014.46,1455.29L981.34,1474.41C981.145,1474.53 980.932,1474.58 980.721,1474.58C980.337,1474.58 979.96,1474.4 979.718,1474.07C979.346,1473.56 979.42,1472.85 979.894,1472.42L996.109,1457.81L891.838,1457.81C889.852,1457.81 888.228,1456.19 888.228,1454.2C888.228,1452.22 889.852,1450.59 891.838,1450.59" style="fill:rgb(248,252,255);fill-rule:nonzero;"/>
                </g>
                <g transform="matrix(2.94941,0,0,2.94941,2381.67,-5156.72)">
                    <path d="M1073,1388.86C1073,1401.05 1072.33,1411.43 1071.17,1421.76C1070.8,1425.09 1069.18,1426.75 1066.93,1427.75C1063.94,1429.07 1060.83,1429.53 1057.67,1429.24C1056.59,1429.14 1055.52,1428.8 1054.46,1428.48C1053.91,1428.31 1053.82,1427.66 1054.02,1426.58C1054.4,1424.56 1054.79,1422.55 1055.12,1420.52C1056.98,1409.04 1057.71,1397.44 1057.24,1385.75C1055.81,1350.21 1046.83,1318 1030.12,1289.31C1021.27,1274.09 1010.53,1261.36 997.575,1251.75C995.624,1250.3 993.605,1248.89 991.294,1248.58C989.86,1248.4 988.4,1248.39 986.956,1248.43C985.491,1248.46 984.069,1248.27 982.654,1247.81C980.725,1247.17 978.784,1246.59 976.845,1245.99C974.664,1245.31 972.931,1243.76 971.575,1241.55C969.848,1238.73 968.067,1235.98 965.977,1233.57C965.775,1233.34 965.588,1233.07 965.429,1232.79C964.941,1231.94 964.891,1231.29 965.422,1230.5C966.965,1228.21 968.634,1226.27 971.246,1226C973.6,1225.75 975.833,1226.17 978.08,1226.92C985.145,1229.27 991.981,1232.41 998.564,1236.38C1031.9,1256.46 1054.18,1288.84 1065.9,1332.9C1069.02,1344.64 1070.99,1356.71 1072.06,1369.03C1072.68,1376.2 1073.03,1383.39 1073,1388.86" style="fill:rgb(248,252,255);fill-rule:nonzero;"/>
                </g>
                <g transform="matrix(2.94941,0,0,2.94941,2381.67,-5154.98)">
                    <path d="M823.212,1395.29C823.233,1367.32 826.241,1344.96 832.914,1323.45C840.169,1300.07 850.961,1279.7 865.737,1262.81C880.549,1245.87 897.62,1233.98 916.852,1227.05C919.455,1226.12 922.062,1225.32 924.824,1225.69C926.575,1225.93 928.092,1226.63 929.322,1228.24C929.702,1228.74 930.109,1229.2 930.481,1229.71C931.406,1230.98 931.401,1231.75 930.436,1233.03C929.815,1233.85 929.119,1234.58 928.521,1235.43C927.381,1237.06 926.227,1238.68 925.198,1240.41C923.537,1243.21 921.489,1245.18 918.732,1245.91C916.094,1246.61 913.468,1247.39 910.829,1248.1C910.417,1248.2 909.967,1248.2 909.542,1248.14C905.601,1247.55 902.038,1248.89 898.675,1251.4C889.706,1258.09 881.741,1266.34 874.676,1275.97C861.902,1293.39 852.741,1313.51 846.555,1335.84C843.236,1347.81 841.001,1360.11 839.778,1372.7C838.88,1381.94 838.605,1391.21 839.06,1400.51C839.486,1409.2 840.442,1417.79 842.184,1426.23C842.48,1427.67 842.283,1427.82 841.231,1428.28C838.728,1429.37 836.173,1429.1 833.665,1428.74C831.79,1428.47 829.941,1427.64 828.14,1426.85C826.876,1426.3 826.13,1424.86 825.369,1423.53C825.243,1423.31 825.213,1422.98 825.182,1422.69C823.963,1411.97 823.186,1401.21 823.212,1395.29" style="fill:rgb(248,252,255);fill-rule:nonzero;"/>
                </g>
                <g transform="matrix(2.94941,0,0,2.94941,2381.67,-4920.17)">
                    <path d="M943.413,1295.37L934.487,1281.4L931.002,1287.26C931.002,1287.25 931.002,1287.25 931,1287.25C926.527,1294.77 922.775,1301.09 918.525,1308.24C905.055,1284.78 891.983,1262.01 878.799,1239.05C876.159,1239.06 873.186,1239.62 870.264,1240.79C867.578,1241.86 865.322,1243.28 863.653,1244.84C880.598,1274.41 897.342,1303.63 914.74,1333.99C914.754,1334.01 914.766,1334.03 914.778,1334.06C915.406,1334.91 916.596,1336.03 918.506,1336.03C919.921,1336.03 921.334,1335.23 922.261,1334C928.246,1323.64 933.742,1314.14 939.182,1304.62C939.194,1304.6 941.974,1299.53 942.837,1298.06C943.7,1296.59 943.413,1295.37 943.413,1295.37" style="fill:rgb(248,252,255);fill-rule:nonzero;"/>
                </g>
                <g transform="matrix(2.94941,0,0,2.94941,2381.67,-5538.31)">
                    <path d="M944.522,1337.2L944.522,1443.96C944.522,1445.89 946.146,1447.46 948.132,1447.46C950.118,1447.46 951.744,1445.89 951.744,1443.96L951.744,1337.2L944.522,1337.2Z" style="fill:rgb(248,252,255);fill-rule:nonzero;"/>
                </g>
                <g transform="matrix(2.94941,0,0,2.94941,2381.67,-5120.91)">
                    <path d="M1025.75,1308.85C1022.98,1307.74 1020.16,1307.18 1017.62,1307.11C1004.4,1330.14 991.359,1352.85 977.934,1376.24C976.578,1374.18 975.822,1373.1 975.153,1372C959.832,1346.82 946.608,1323.85 931.976,1299.15L926.392,1288.94C924.728,1285.62 923.671,1281.86 923.671,1277.92C923.671,1266.98 930.722,1257.69 940.526,1254.33L940.526,1239.05C922.45,1242.8 908.771,1258.84 908.771,1277.99C908.771,1282.57 909.527,1286.95 910.914,1291.03C910.98,1291.23 911.049,1291.42 911.127,1291.64C911.743,1293.36 912.469,1295.02 913.301,1296.61C913.343,1296.7 913.391,1296.79 913.433,1296.88C913.448,1296.9 913.462,1296.93 913.476,1296.96C913.881,1297.76 914.329,1298.6 914.839,1299.51C931.682,1329.67 949.298,1359.21 966.646,1389.11C969.133,1393.4 971.652,1397.68 974.447,1402.43C975.12,1403.22 976.241,1404.09 977.922,1404.09C979.266,1404.09 980.6,1403.36 981.527,1402.23C998.847,1372.03 1015.64,1342.73 1032.6,1313.15C1030.92,1311.49 1028.58,1309.97 1025.75,1308.85" style="fill:rgb(248,252,255);fill-rule:nonzero;"/>
                </g>
                <g transform="matrix(2.94941,0,0,2.94941,2381.67,-5329.73)">
                    <path d="M956.239,1310.07L956.239,1325.35C966.057,1328.7 973.12,1337.99 973.12,1348.94C973.12,1352 972.57,1354.93 971.565,1357.63L952.634,1389.58L962.07,1403.87L981.342,1370.75C985.469,1364.49 987.873,1357 987.873,1348.94C987.873,1329.78 974.296,1313.8 956.239,1310.07" style="fill:rgb(248,252,255);fill-rule:nonzero;"/>
                </g>
                <g transform="matrix(2.94941,0,0,2.94941,2381.67,-4164.98)">
                    <path d="M1070.98,1118.26C1070.46,1113.08 1069.59,1108 1068.18,1103.01C1067.33,1099.56 1066.63,1097.32 1066.63,1097.32C1066.63,1097.32 1065.91,1098.33 1065.04,1099.48C1064.05,1100.63 1063.09,1101.8 1062.07,1102.92C1059.86,1105.38 1057.23,1107.38 1054.82,1109.61C1051.61,1112.57 1048.11,1115.12 1044.66,1117.71L1041.09,1120.02C1041.09,1120.02 1033.94,1124.26 1032.47,1124.95L1031.92,1125.24C1031.92,1125.24 1033.53,1126.06 1036.18,1127.46C1036.21,1127.47 1036.23,1127.48 1036.26,1127.49C1038.5,1128.73 1040.74,1129.98 1042.95,1131.25C1043.45,1131.54 1043.98,1131.84 1044.58,1132.2C1044.17,1132.88 1043.66,1133.67 1043.36,1134.14C1041.64,1136.83 1039.4,1139.09 1037.18,1141.33C1033.24,1145.31 1028.51,1148.26 1023.79,1151.16C1018.05,1154.67 1011.83,1157.26 1005.68,1159.97C1002.75,1161.26 999.766,1162.44 996.755,1163.53C993.868,1164.58 990.939,1165.55 987.985,1166.38C984.53,1167.36 981.024,1168.16 977.54,1169.03C974.681,1169.75 971.839,1170.52 968.962,1171.14C965.155,1171.96 961.332,1172.72 957.489,1173.38C955.449,1173.73 953.36,1173.83 951.291,1173.97C950.734,1174.01 950.177,1174.02 949.62,1174.02L949.62,1174C949.359,1174.01 949.101,1174.01 948.84,1174.01C948.62,1174.01 948.402,1174.01 948.181,1174.02C947.961,1174.01 947.738,1174.01 947.52,1174.01C946.972,1174 946.425,1173.99 945.875,1173.99L945.875,1174C945.607,1173.99 945.339,1173.99 945.071,1173.97C943,1173.83 940.912,1173.73 938.871,1173.38C935.031,1172.72 931.208,1171.96 927.399,1171.14C924.521,1170.52 921.679,1169.75 918.823,1169.03C915.339,1168.16 911.831,1167.36 908.375,1166.38C905.419,1165.55 902.494,1164.58 899.605,1163.53C896.594,1162.44 893.61,1161.26 890.678,1159.97C884.532,1157.26 878.313,1154.67 872.572,1151.16C867.85,1148.26 863.119,1145.31 859.182,1141.33C856.954,1139.09 854.723,1136.83 853.007,1134.14C852.704,1133.67 852.192,1132.88 851.78,1132.2C852.382,1131.84 852.908,1131.54 853.403,1131.25C855.624,1129.98 857.862,1128.73 860.104,1127.49C860.132,1127.48 860.156,1127.47 860.182,1127.46C862.83,1126.06 864.442,1125.24 864.442,1125.24L863.889,1124.95C862.42,1124.26 855.271,1120.02 855.271,1120.02L851.706,1117.71C848.245,1115.12 844.747,1112.57 841.547,1109.61C839.132,1107.38 836.503,1105.38 834.292,1102.92C833.275,1101.8 832.308,1100.63 831.319,1099.48C830.457,1098.33 829.729,1097.32 829.729,1097.32C829.729,1097.32 829.027,1099.56 828.179,1103.01C826.773,1108 825.903,1113.08 825.382,1118.26C824.818,1123.88 824.507,1129.5 824.649,1135.14C824.706,1137.37 824.837,1139.6 825.076,1141.81C825.493,1146.22 826.553,1150.33 826.553,1150.33L827.055,1149.9L832.4,1146.07L836.683,1142.96C837.589,1142.32 838.487,1141.69 839.402,1141.04C839.62,1141.33 839.85,1141.57 840.016,1141.85C843.194,1147.27 847.582,1151.64 852.142,1155.86C852.555,1156.24 853.007,1156.58 853.455,1156.92C855.634,1158.57 857.838,1160.18 859.995,1161.86C862.915,1164.13 866.11,1165.96 869.369,1167.68C873.738,1169.99 878.109,1172.29 882.494,1174.56C884.034,1175.36 885.625,1176.06 887.175,1176.82C887.99,1177.23 888.82,1177.62 889.569,1178.13C893.132,1180.54 897.061,1182.31 900.757,1184.47C907.486,1188.41 914.414,1192.04 920.655,1196.77C923.315,1198.78 925.927,1200.87 928.515,1202.97C931.435,1205.35 934.379,1207.72 937.186,1210.24C940.276,1213.01 943.154,1216 945.875,1219.14L945.875,1219.17C946.003,1219.31 946.133,1219.45 946.259,1219.59C946.479,1219.84 946.705,1220.09 946.92,1220.35C947.281,1220.78 947.667,1221.19 948.136,1221.71C948.15,1221.69 948.165,1221.67 948.181,1221.66C948.198,1221.67 948.212,1221.69 948.226,1221.71C948.693,1221.19 949.077,1220.78 949.44,1220.35C952.46,1216.76 955.688,1213.37 959.175,1210.24C961.981,1207.72 964.923,1205.35 967.848,1202.97C970.436,1200.87 973.048,1198.78 975.707,1196.77C981.946,1192.04 988.877,1188.41 995.601,1184.47C999.301,1182.31 1003.23,1180.54 1006.79,1178.13C1007.54,1177.62 1008.37,1177.23 1009.19,1176.82C1010.74,1176.06 1012.33,1175.36 1013.87,1174.56C1018.25,1172.29 1022.62,1169.99 1026.99,1167.68C1030.25,1165.96 1033.45,1164.13 1036.37,1161.86C1038.52,1160.18 1040.73,1158.57 1042.9,1156.92C1043.35,1156.58 1043.81,1156.24 1044.22,1155.86C1048.78,1151.64 1053.17,1147.27 1056.34,1141.85C1056.51,1141.57 1056.74,1141.33 1056.96,1141.04C1057.88,1141.69 1058.77,1142.32 1059.68,1142.96L1063.96,1146.07L1069.31,1149.9L1069.81,1150.33C1069.81,1150.33 1070.86,1146.22 1071.28,1141.81C1071.53,1139.6 1071.65,1137.37 1071.71,1135.14C1071.85,1129.5 1071.54,1123.88 1070.98,1118.26" style="fill:rgb(248,252,255);fill-rule:nonzero;"/>
                </g>
                <g transform="matrix(-2.12157,-2.04889,-2.04889,2.12157,9741.8,-1259.16)">
                    <path d="M990.071,1158.27C990.071,1158.27 987.865,1172.34 987.579,1183.45C987.304,1194.29 989.825,1199 990.071,1201.24C990.071,1201.24 970.495,1187.69 958.919,1148.66C958.919,1148.66 971.624,1158.79 990.071,1158.27" style="fill:rgb(248,252,255);fill-rule:nonzero;"/>
                </g>
                <g transform="matrix(2.94941,0,0,2.94941,2381.67,-4382.76)">
                    <path d="M1024.95,1190.75C1022.16,1177.27 1005.7,1172.65 993.64,1174.84C974.932,1179.09 963.234,1197.08 946.941,1206C959.577,1196.62 974.367,1177.49 989.568,1169.18C1004.97,1159.94 1027.72,1172.59 1024.95,1190.75M1031.84,1182.76C1029.34,1167.03 1012.11,1155.72 996.726,1157.85C979.532,1160.42 966.61,1172.86 954.175,1184.02C935.552,1201.53 906.357,1217.89 881.206,1210.9C880.907,1211.55 908.91,1237.15 936.602,1235.94C953.689,1226.08 965.327,1209.28 978.468,1195.01C1007.98,1168.06 1021.71,1211.16 990.739,1204.34C1005.59,1223.09 1037.08,1205.21 1031.84,1182.76" style="fill:rgb(248,252,255);fill-rule:nonzero;"/>
                </g>
                <g transform="matrix(2.94941,0,0,2.94941,2381.67,-4597.21)">
                    <path d="M933.604,1229.48C933.604,1229.48 939.457,1230.02 946.387,1227.91C950.58,1226.64 954.06,1224.92 955.323,1224.32C955.323,1224.32 956.219,1229.39 959.421,1235.15C961.301,1238.54 964.335,1241.26 964.335,1241.26C964.335,1241.26 949.035,1240.49 933.604,1229.48" style="fill:rgb(248,252,255);fill-rule:nonzero;"/>
                </g>
                <g transform="matrix(2.94941,0,0,2.94941,2381.67,-4537.13)">
                    <path d="M880.951,1225.82C880.951,1225.82 886.791,1216.92 895.94,1213.55C905.255,1210.12 915.199,1209.8 926.844,1214.14C938.138,1218.35 957.667,1226.94 957.667,1226.94L945.726,1235.41C945.726,1235.41 930.316,1223.95 921.267,1220.87C912.215,1217.79 897.547,1214.4 880.951,1225.82" style="fill:rgb(248,252,255);fill-rule:nonzero;"/>
                </g>
                <g transform="matrix(2.94941,0,0,2.94941,2381.67,-4519.23)">
                    <path d="M882.362,1207.74C882.362,1207.74 868.302,1217.56 869.456,1236.82C869.456,1236.82 856.121,1229.84 849.79,1202.32C849.79,1202.32 865.029,1210.63 882.362,1207.74" style="fill:rgb(248,252,255);fill-rule:nonzero;"/>
                </g>
                <g transform="matrix(2.94941,0,0,2.94941,2381.67,-4545.45)">
                    <path d="M1038.15,1235.04C1041.99,1230.85 1047.22,1223.47 1049.09,1212.99C1049.09,1212.99 1040.33,1217.12 1024.33,1214.38C1029.91,1219 1035.45,1225.68 1038.15,1235.04" style="fill:rgb(248,252,255);fill-rule:nonzero;"/>
                </g>
                <g transform="matrix(2.94941,0,0,2.94941,2381.67,-4443.76)">
                    <path d="M898.566,1218.13C895.485,1217.35 893.93,1213.84 894.124,1210.86C894.392,1204.91 901.975,1204.84 905.751,1207.6C911.209,1211.32 915.962,1216.02 921.781,1219.22C921.84,1219.24 921.899,1219.27 921.959,1219.3C922.032,1219.35 922.106,1219.39 922.179,1219.43C928.493,1215.48 938.975,1208.44 940.731,1207.26C939.349,1206.57 937.636,1205.71 935.808,1204.81C935.801,1204.81 935.794,1204.81 935.789,1204.8C921.681,1196.76 902.266,1184.59 886.888,1195.57C880.557,1199.65 878.011,1206.9 879.377,1213.86C882.806,1226.91 900.567,1228.96 906.445,1217.47C904.511,1218.54 903.307,1219.59 898.566,1218.13" style="fill:rgb(248,252,255);fill-rule:nonzero;"/>
                </g>
            </g>
        </g>
    </g>
</svg>
