<?xml version="1.0" encoding="UTF-8" standalone="no"?>
<!DOCTYPE svg PUBLIC "-//W3C//DTD SVG 1.1//EN" "http://www.w3.org/Graphics/SVG/1.1/DTD/svg11.dtd">
<svg width="100%" height="100%" viewBox="0 0 559 559" version="1.1" xmlns="http://www.w3.org/2000/svg" xmlns:xlink="http://www.w3.org/1999/xlink" xml:space="preserve" xmlns:serif="http://www.serif.com/" style="fill-rule:evenodd;clip-rule:evenodd;stroke-linecap:round;stroke-linejoin:round;stroke-miterlimit:1.5;">
    <g transform="matrix(1,0,0,1,-401.91,-5225.98)">
        <g id="Artboard1" transform="matrix(0.159096,0,0,0.225008,401.91,5225.98)">
            <rect x="0" y="0" width="3507.87" height="2480.32" style="fill:none;"/>
            <clipPath id="_clip1">
                <rect x="0" y="0" width="3507.87" height="2480.32"/>
            </clipPath>
            <g clip-path="url(#_clip1)">
                <g transform="matrix(6.2855,0,0,4.44429,-23155.6,-6521.23)">
                    <rect x="3648.54" y="-35.433" width="3578.74" height="5976.38" style="fill:rgb(248,252,255);stroke:black;stroke-width:2.08px;"/>
                </g>
                <g transform="matrix(8.5853,0,0,6.07888,-3687.04,-9064.8)">
                    <path d="M842.848,1486.12L842.848,1904.3L424.662,1904.3L424.662,1486.12L842.848,1486.12ZM707.471,1756.98C705.27,1743.15 690.101,1733.21 676.558,1735.08C661.421,1737.34 650.045,1748.28 639.097,1758.09C622.702,1773.48 597,1787.87 574.858,1781.72C574.595,1782.29 599.248,1804.8 623.627,1803.73C638.67,1795.07 648.915,1780.3 660.484,1767.75C686.466,1744.06 698.553,1781.95 671.287,1775.95C684.361,1792.44 712.084,1776.72 707.471,1756.98ZM701.405,1764.01C698.949,1752.15 684.458,1748.09 673.841,1750.02C657.371,1753.76 647.073,1769.57 632.729,1777.41C643.853,1769.17 656.874,1752.35 670.256,1745.04C683.816,1736.92 703.844,1748.04 701.405,1764.01ZM620.987,1734.13C634.572,1743.81 648.042,1744.49 648.042,1744.49C648.042,1744.49 645.371,1742.1 643.716,1739.12C640.897,1734.05 640.108,1729.6 640.108,1729.6C638.996,1730.12 635.933,1731.64 632.241,1732.75C626.14,1734.61 620.987,1734.13 620.987,1734.13ZM574.634,1748.82C589.244,1738.78 602.157,1741.76 610.126,1744.47C618.093,1747.18 631.659,1757.25 631.659,1757.25L642.172,1749.81C642.172,1749.81 624.979,1742.26 615.036,1738.56C604.784,1734.74 596.03,1735.02 587.829,1738.04C579.775,1741 574.634,1748.82 574.634,1748.82ZM629.623,1695.79L621.765,1683.51L618.697,1688.66C618.697,1688.65 618.697,1688.65 618.695,1688.65C614.757,1695.27 611.454,1700.82 607.712,1707.11C595.854,1686.48 584.346,1666.47 572.739,1646.28C570.415,1646.29 567.798,1646.78 565.225,1647.81C562.861,1648.75 560.874,1650 559.405,1651.37L604.38,1729.75C604.393,1729.76 604.403,1729.78 604.414,1729.81C604.967,1730.56 606.014,1731.54 607.696,1731.54C608.941,1731.54 610.185,1730.84 611.002,1729.75C616.271,1720.65 621.109,1712.3 625.898,1703.92C625.909,1703.91 628.356,1699.45 629.116,1698.16C629.876,1696.87 629.623,1695.79 629.623,1695.79ZM630.599,1548.32L630.599,1642.17C630.599,1643.87 632.029,1645.25 633.777,1645.25C635.526,1645.25 636.957,1643.87 636.957,1642.17L636.957,1548.32L630.599,1548.32ZM702.11,1647.81C699.671,1646.83 697.188,1646.34 694.952,1646.28C683.314,1666.53 671.833,1686.49 660.014,1707.06C658.82,1705.24 658.155,1704.3 657.566,1703.33C644.078,1681.19 632.436,1661 619.554,1639.28L614.638,1630.31C613.173,1627.39 612.243,1624.08 612.243,1620.62C612.243,1611 618.45,1602.83 627.081,1599.88L627.081,1586.45C611.168,1589.74 599.125,1603.84 599.125,1620.68C599.125,1624.71 599.791,1628.56 601.012,1632.14C601.07,1632.32 601.131,1632.49 601.2,1632.68C601.742,1634.19 602.381,1635.65 603.113,1637.05C603.15,1637.13 603.193,1637.21 603.23,1637.29C603.243,1637.3 603.255,1637.33 603.268,1637.36C603.624,1638.06 604.018,1638.8 604.467,1639.6C619.295,1666.11 634.804,1692.08 650.077,1718.37C652.266,1722.14 654.484,1725.9 656.944,1730.08C657.537,1730.77 658.524,1731.54 660.004,1731.54C661.187,1731.54 662.361,1730.9 663.177,1729.9C678.425,1703.35 693.209,1677.6 708.14,1651.59C706.661,1650.13 704.601,1648.8 702.11,1647.81ZM640.915,1586.64L640.915,1600.07C649.558,1603.02 655.776,1611.18 655.776,1620.81C655.776,1623.5 655.292,1626.08 654.407,1628.45L637.741,1656.54L646.048,1669.1L663.014,1639.99C666.648,1634.48 668.764,1627.9 668.764,1620.81C668.764,1603.97 656.811,1589.92 640.915,1586.64ZM741.928,1765.19C741.471,1760.64 740.705,1756.17 739.463,1751.79C738.715,1748.75 738.099,1746.78 738.099,1746.78C738.099,1746.78 737.465,1747.67 736.699,1748.68C735.828,1749.69 734.982,1750.72 734.084,1751.71C732.139,1753.87 729.823,1755.63 727.702,1757.59C724.876,1760.19 721.795,1762.43 718.757,1764.71L715.614,1766.74C715.614,1766.74 709.32,1770.47 708.026,1771.07L707.541,1771.33C707.541,1771.33 708.959,1772.05 711.292,1773.28C711.318,1773.29 711.336,1773.3 711.362,1773.31C713.334,1774.4 715.306,1775.5 717.252,1776.61C717.692,1776.87 718.159,1777.13 718.687,1777.45C718.326,1778.05 717.877,1778.74 717.613,1779.15C716.099,1781.52 714.127,1783.51 712.172,1785.47C708.704,1788.97 704.539,1791.57 700.384,1794.12C695.331,1797.2 689.855,1799.48 684.441,1801.86C681.861,1803 679.234,1804.03 676.583,1804.99C674.042,1805.91 671.463,1806.77 668.863,1807.5C665.821,1808.36 662.734,1809.06 659.667,1809.83C657.15,1810.46 654.648,1811.14 652.115,1811.68C648.764,1812.4 645.398,1813.07 642.015,1813.65C640.219,1813.96 638.38,1814.05 636.559,1814.17C636.068,1814.2 635.578,1814.21 635.087,1814.21L635.087,1814.2C634.858,1814.2 634.631,1814.2 634.401,1814.2C634.207,1814.2 634.015,1814.2 633.821,1814.21C633.627,1814.2 633.431,1814.2 633.239,1814.2C632.756,1814.2 632.275,1814.19 631.79,1814.19L631.79,1814.2C631.555,1814.19 631.319,1814.19 631.083,1814.17C629.259,1814.05 627.421,1813.96 625.624,1813.65C622.244,1813.07 618.878,1812.4 615.525,1811.68C612.991,1811.14 610.489,1810.46 607.975,1809.83C604.908,1809.06 601.819,1808.36 598.777,1807.5C596.174,1806.77 593.599,1805.91 591.056,1804.99C588.405,1804.03 585.778,1803 583.197,1801.86C577.786,1799.48 572.311,1797.2 567.257,1794.12C563.1,1791.57 558.935,1788.97 555.469,1785.47C553.508,1783.51 551.543,1781.52 550.033,1779.15C549.766,1778.74 549.315,1778.05 548.953,1777.45C549.483,1777.13 549.946,1776.87 550.381,1776.61C552.337,1775.5 554.307,1774.4 556.281,1773.31L556.349,1773.28C558.681,1772.05 560.1,1771.33 560.1,1771.33L559.613,1771.07C558.32,1770.47 552.026,1766.74 552.026,1766.74L548.887,1764.71C545.84,1762.43 542.761,1760.19 539.944,1757.59C537.818,1755.63 535.503,1753.87 533.557,1751.71C532.661,1750.72 531.81,1749.69 530.939,1748.68C530.181,1747.67 529.54,1746.78 529.54,1746.78C529.54,1746.78 528.922,1748.75 528.175,1751.79C526.937,1756.17 526.171,1760.64 525.713,1765.19C525.216,1770.13 524.942,1775.07 525.067,1780.03C525.118,1781.99 525.233,1783.95 525.443,1785.9C525.81,1789.77 526.744,1793.39 526.744,1793.39L527.186,1793.01L531.891,1789.64L535.662,1786.91C536.459,1786.35 537.25,1785.79 538.055,1785.22C538.247,1785.47 538.45,1785.68 538.596,1785.93C541.394,1790.7 545.257,1794.54 549.271,1798.25C549.635,1798.58 550.033,1798.88 550.427,1799.18C552.345,1800.63 554.286,1802.05 556.185,1803.52C558.755,1805.52 561.568,1807.13 564.437,1808.64C568.284,1810.67 572.132,1812.69 575.992,1814.69C577.348,1815.39 578.748,1816.01 580.113,1816.67C580.831,1817.04 581.561,1817.38 582.221,1817.83C585.357,1819.94 588.816,1821.5 592.07,1823.4C597.994,1826.86 604.093,1830.06 609.588,1834.21C611.929,1835.98 614.229,1837.82 616.507,1839.66C619.078,1841.76 621.67,1843.84 624.141,1846.06C626.861,1848.49 629.395,1851.12 631.79,1853.88L631.79,1853.91C631.903,1854.03 632.018,1854.15 632.129,1854.28C632.322,1854.5 632.521,1854.72 632.71,1854.94C633.028,1855.32 633.368,1855.68 633.781,1856.14C633.793,1856.12 633.806,1856.1 633.821,1856.1C633.836,1856.1 633.848,1856.12 633.86,1856.14C634.271,1855.68 634.609,1855.32 634.929,1854.94C637.588,1851.79 640.429,1848.81 643.499,1846.06C645.97,1843.84 648.56,1841.76 651.135,1839.66C653.413,1837.82 655.713,1835.98 658.053,1834.21C663.546,1830.06 669.648,1826.86 675.567,1823.4C678.825,1821.5 682.284,1819.94 685.418,1817.83C686.078,1817.38 686.809,1817.04 687.531,1816.67C688.895,1816.01 690.295,1815.39 691.651,1814.69C695.507,1812.69 699.354,1810.67 703.201,1808.64C706.071,1807.13 708.888,1805.52 711.459,1803.52C713.352,1802.05 715.297,1800.63 717.208,1799.18C717.604,1798.88 718.009,1798.58 718.37,1798.25C722.384,1794.54 726.249,1790.7 729.04,1785.93C729.19,1785.68 729.392,1785.47 729.586,1785.22C730.396,1785.79 731.179,1786.35 731.98,1786.91L735.748,1789.64L740.458,1793.01L740.898,1793.39C740.898,1793.39 741.823,1789.77 742.193,1785.9C742.413,1783.95 742.518,1781.99 742.571,1780.03C742.694,1775.07 742.421,1770.13 741.928,1765.19ZM660.652,1776.05C660.652,1776.05 653.447,1786.29 646.834,1793.49C640.378,1800.52 635.897,1801.96 634.373,1803.22C634.373,1803.22 655.058,1806.61 686.254,1789C686.254,1789 672.014,1787.65 660.652,1776.05ZM584.218,1539.32C582.47,1539.32 581.04,1540.76 581.04,1542.5C581.04,1544.25 582.47,1545.67 584.218,1545.67L676.015,1545.67L661.74,1558.52C661.322,1558.89 661.257,1559.52 661.585,1559.97C661.798,1560.26 662.13,1560.41 662.468,1560.41C662.653,1560.41 662.841,1560.37 663.013,1560.27L692.17,1543.46C692.514,1543.26 692.725,1542.9 692.725,1542.52C692.725,1542.13 692.514,1541.77 692.17,1541.58L663.013,1524.76C662.53,1524.48 661.912,1524.61 661.585,1525.06C661.257,1525.51 661.322,1526.14 661.74,1526.51L675.986,1539.32L584.218,1539.32ZM743.707,1707.48C743.733,1702.67 743.425,1696.35 742.879,1690.04C741.937,1679.21 740.203,1668.6 737.456,1658.28C727.138,1619.55 707.524,1591.08 678.176,1573.43C672.381,1569.94 666.362,1567.17 660.143,1565.11C658.164,1564.45 656.199,1564.08 654.126,1564.3C651.827,1564.54 650.357,1566.24 648.999,1568.26C648.531,1568.95 648.575,1569.52 649.005,1570.27C649.145,1570.52 649.31,1570.75 649.488,1570.96C651.328,1573.07 652.895,1575.49 654.416,1577.97C655.61,1579.91 657.135,1581.28 659.055,1581.87C660.762,1582.4 662.471,1582.91 664.169,1583.47C665.415,1583.88 666.667,1584.05 667.957,1584.02C669.228,1583.98 670.513,1583.99 671.776,1584.15C673.81,1584.42 675.588,1585.66 677.305,1586.94C688.71,1595.39 698.166,1606.58 705.957,1619.96C720.668,1645.18 728.573,1673.5 729.832,1704.74C730.246,1715.02 729.603,1725.22 727.966,1735.31C727.675,1737.1 727.332,1738.86 726.998,1740.64C726.821,1741.59 726.901,1742.16 727.385,1742.31C728.318,1742.59 729.26,1742.89 730.211,1742.98C732.993,1743.23 735.731,1742.83 738.363,1741.67C740.344,1740.79 741.77,1739.33 742.096,1736.4C743.117,1727.32 743.707,1718.19 743.707,1707.48ZM523.802,1713.65C523.779,1718.85 524.463,1728.31 525.537,1737.74C525.564,1737.99 525.59,1738.28 525.701,1738.48C526.371,1739.64 527.028,1740.91 528.141,1741.39C529.726,1742.09 531.354,1742.82 533.005,1743.06C535.213,1743.37 537.462,1743.61 539.666,1742.65C540.592,1742.25 540.765,1742.12 540.505,1740.85C538.971,1733.43 538.129,1725.88 537.754,1718.24C537.354,1710.06 537.596,1701.91 538.386,1693.79C539.463,1682.72 541.431,1671.91 544.353,1661.38C549.799,1641.75 557.864,1624.06 569.109,1608.75C575.329,1600.28 582.341,1593.03 590.237,1587.15C593.198,1584.94 596.335,1583.77 599.804,1584.28C600.178,1584.34 600.574,1584.34 600.937,1584.25C603.26,1583.62 605.572,1582.94 607.895,1582.32C610.322,1581.68 612.125,1579.95 613.587,1577.49C614.493,1575.97 615.509,1574.54 616.513,1573.11C617.039,1572.36 617.652,1571.72 618.199,1571C619.048,1569.87 619.052,1569.2 618.238,1568.08C617.911,1567.63 617.552,1567.23 617.218,1566.79C616.135,1565.37 614.799,1564.76 613.258,1564.55C610.826,1564.22 608.531,1564.92 606.24,1565.74C589.308,1571.84 574.28,1582.29 561.24,1597.18C548.232,1612.03 538.731,1629.94 532.344,1650.49C526.469,1669.4 523.821,1689.06 523.802,1713.65ZM575.876,1738.27C560.616,1740.81 547.201,1733.5 547.201,1733.5C552.774,1757.69 564.514,1763.83 564.514,1763.83C563.498,1746.9 575.876,1738.27 575.876,1738.27ZM713.026,1754.45C716.407,1750.77 721.011,1744.28 722.657,1735.06C722.657,1735.06 714.945,1738.69 700.859,1736.29C705.772,1740.35 710.649,1746.22 713.026,1754.45ZM590.141,1769.9C587.429,1769.21 586.06,1766.12 586.231,1763.51C586.467,1758.27 593.142,1758.21 596.467,1760.64C601.272,1763.91 605.456,1768.04 610.579,1770.85C610.631,1770.87 610.683,1770.9 610.736,1770.92C610.8,1770.97 610.865,1771 610.929,1771.04C616.488,1767.57 625.716,1761.38 627.262,1760.34C626.045,1759.73 624.537,1758.98 622.928,1758.19C622.922,1758.19 622.915,1758.19 622.911,1758.18C610.491,1751.11 593.399,1740.41 579.86,1750.06C574.287,1753.65 572.045,1760.02 573.248,1766.14C576.267,1777.62 591.903,1779.42 597.078,1769.32C595.375,1770.26 594.315,1771.18 590.141,1769.9Z" style="fill:rgb(29,63,105);"/>
                </g>
            </g>
        </g>
    </g>
</svg>
